<svg width="60" height="54" viewBox="0 0 60 54" fill="none" xmlns="http://www.w3.org/2000/svg">
<path d="M30 21.5638C32.8744 21.5638 35.2186 23.908 35.2186 26.8382C35.2186 29.6289 32.8744 32.001 30 32.001C27.1256 32.001 24.7814 29.6289 24.7814 26.8382C24.7814 23.908 27.1256 21.5638 30 21.5638ZM17.0791 49.1638C18.8372 50.2243 22.6884 48.6057 27.1256 44.4196C25.6744 42.7731 24.2512 40.9871 22.9116 39.1173C20.6233 38.894 18.3628 38.5592 16.214 38.1127C14.7907 44.0847 15.3209 48.1871 17.0791 49.1638ZM19.0605 33.1452L18.2512 31.722C17.9442 32.5313 17.6372 33.3406 17.4419 34.122C18.1953 34.2894 19.0326 34.4289 19.8977 34.5685C19.6186 34.094 19.3395 33.6196 19.0605 33.1452ZM37.3116 31.0243L39.5721 26.8382L37.3116 22.6522C36.4744 21.1731 35.5814 19.8615 34.7721 18.5499C33.2651 18.4661 31.6744 18.4661 30 18.4661C28.3256 18.4661 26.7349 18.4661 25.2279 18.5499C24.4186 19.8615 23.5256 21.1731 22.6884 22.6522L20.4279 26.8382L22.6884 31.0243C23.5256 32.5033 24.4186 33.815 25.2279 35.1266C26.7349 35.2103 28.3256 35.2103 30 35.2103C31.6744 35.2103 33.2651 35.2103 34.7721 35.1266C35.5814 33.815 36.4744 32.5033 37.3116 31.0243ZM30 12.2708C29.4698 12.8847 28.9116 13.5266 28.3535 14.2801C28.9116 14.2801 29.4419 14.2801 30 14.2801C30.5581 14.2801 31.0884 14.2801 31.6465 14.2801C31.0884 13.5266 30.5302 12.8847 30 12.2708ZM30 41.4057C30.5302 40.7917 31.0884 40.1499 31.6465 39.3964C31.0884 39.3964 30.5581 39.3964 30 39.3964C29.4419 39.3964 28.9116 39.3964 28.3535 39.3964C28.9116 40.1499 29.4698 40.7917 30 41.4057ZM42.893 4.51265C41.1628 3.45218 37.3116 5.07079 32.8744 9.25684C34.3256 10.9033 35.7488 12.6894 37.0884 14.5592C39.3767 14.7824 41.6372 15.1173 43.786 15.5638C45.2093 9.59172 44.6791 5.48939 42.893 4.51265ZM40.9395 20.5313L41.7488 21.9545C42.0558 21.1452 42.3628 20.3359 42.5581 19.5545C41.8046 19.3871 40.9674 19.2475 40.1023 19.108C40.3814 19.5824 40.6605 20.0568 40.9395 20.5313ZM44.986 0.856836C49.0884 3.20102 49.5349 9.36846 47.8046 16.5685C54.893 18.6615 60 22.122 60 26.8382C60 31.5545 54.893 35.015 47.8046 37.108C49.5349 44.308 49.0884 50.4754 44.986 52.8196C40.9116 55.1638 35.3581 52.4847 30 47.3778C24.6419 52.4847 19.0884 55.1638 14.986 52.8196C10.9116 50.4754 10.4651 44.308 12.1953 37.108C5.10698 35.015 0 31.5545 0 26.8382C0 22.122 5.10698 18.6615 12.1953 16.5685C10.4651 9.36846 10.9116 3.20102 14.986 0.856836C19.0884 -1.48735 24.6419 1.19172 30 6.2987C35.3581 1.19172 40.9116 -1.48735 44.986 0.856836ZM44.1767 26.8382C45.1256 28.9313 45.9628 31.0243 46.6605 33.1452C52.5209 31.3871 55.8139 28.8754 55.8139 26.8382C55.8139 24.801 52.5209 22.2894 46.6605 20.5313C45.9628 22.6522 45.1256 24.7452 44.1767 26.8382ZM15.8233 26.8382C14.8744 24.7452 14.0372 22.6522 13.3395 20.5313C7.47907 22.2894 4.18605 24.801 4.18605 26.8382C4.18605 28.8754 7.47907 31.3871 13.3395 33.1452C14.0372 31.0243 14.8744 28.9313 15.8233 26.8382ZM40.9395 33.1452C40.6605 33.6196 40.3814 34.094 40.1023 34.5685C40.9674 34.4289 41.8046 34.2894 42.5581 34.122C42.3628 33.3406 42.0558 32.5313 41.7488 31.722L40.9395 33.1452ZM32.8744 44.4196C37.3116 48.6057 41.1628 50.2243 42.893 49.1638C44.6791 48.1871 45.2093 44.0847 43.786 38.1127C41.6372 38.5592 39.3767 38.894 37.0884 39.1173C35.7488 40.9871 34.3256 42.7731 32.8744 44.4196ZM19.0605 20.5313C19.3395 20.0568 19.6186 19.5824 19.8977 19.108C19.0326 19.2475 18.1953 19.3871 17.4419 19.5545C17.6372 20.3359 17.9442 21.1452 18.2512 21.9545L19.0605 20.5313ZM27.1256 9.25684C22.6884 5.07079 18.8372 3.45218 17.0791 4.51265C15.3209 5.48939 14.7907 9.59172 16.214 15.5638C18.3628 15.1173 20.6233 14.7824 22.9116 14.5592C24.2512 12.6894 25.6744 10.9033 27.1256 9.25684Z" fill="#F1889B"/>
</svg>
